<?xml version="1.0" encoding="utf-8"?>
<!-- Generator: Adobe Illustrator 24.0.2, SVG Export Plug-In . SVG Version: 6.00 Build 0)  -->
<svg version="1.1" id="Capa_1" xmlns="http://www.w3.org/2000/svg" xmlns:xlink="http://www.w3.org/1999/xlink" x="0px" y="0px"
	 viewBox="0 0 100 100" style="enable-background:new 0 0 100 100;" xml:space="preserve">
<g>
	<g>
		<defs>
			<circle id="SVGID_3_" cx="50" cy="50" r="48"/>
		</defs>
		<clipPath id="SVGID_1_">
			<use xlink:href="#SVGID_3_"  style="overflow:visible;"/>
		</clipPath>
		<polyline style="clip-path:url(#SVGID_1_);fill:none;stroke:#FFFFFF;stroke-width:0.4851;stroke-miterlimit:10;" points="
			80.3,51.2 56.5,52.2 55.1,54.1 40.5,59 35.7,60.9 32.3,60.4 31.8,59.5 30.4,56.5 29.4,55.6 27,52.7 27.9,50.2 27.9,47.8 
			29.4,46.8 30.4,46.4 30.4,42.5 33.8,42.5 33.8,37.1 77.4,38.6 77.4,45.4 78.9,45.9 81,48.1 		"/>
		<polygon style="clip-path:url(#SVGID_1_);fill:#FFFFFF;" points="41,43.5 44.9,43.6 44.9,39.8 43,39.2 41,39.6 		"/>
		<polygon style="clip-path:url(#SVGID_1_);fill:#FFFFFF;" points="50.2,40 48.3,39.4 46.4,39.8 46.4,43.7 50.2,43.9 		"/>
		<polygon style="clip-path:url(#SVGID_1_);fill:#FFFFFF;" points="39.6,39.5 37.8,38.9 35.9,39.3 35.9,43.2 39.6,43.4 		"/>
		<polygon style="clip-path:url(#SVGID_1_);fill:#FFFFFF;" points="52.2,40.1 52.2,44 55.8,44.2 55.8,40.3 54,39.7 		"/>
		<polygon style="clip-path:url(#SVGID_1_);fill:#FFFFFF;" points="71.3,40.6 69.3,40.1 67.2,40.5 67.2,45.4 71.3,45.5 		"/>
		<polygon style="clip-path:url(#SVGID_1_);fill:#FFFFFF;" points="62.9,43.8 65.3,43.9 65.3,40.5 64.1,39.9 62.9,40.4 		"/>
		<polygon style="clip-path:url(#SVGID_1_);fill:#FFFFFF;" points="73.3,40.7 73.3,44.1 76,44.2 76,40.8 74.6,40.3 		"/>
		<polygon style="clip-path:url(#SVGID_1_);fill:#FFFFFF;" points="61.4,40.4 60.4,39.8 59.5,40.3 59.5,43.7 61.4,43.8 		"/>
		<polygon style="clip-path:url(#SVGID_1_);fill:#FFFFFF;" points="40.5,54.1 40.5,57.5 34.2,56.1 36.7,53.6 		"/>
		<polygon style="clip-path:url(#SVGID_1_);fill:#FFFFFF;" points="77.4,41.2 86.6,35.2 100.7,33.3 115.2,31.8 124.5,32.3 
			129.3,35.7 133.2,38.1 133.2,68.7 86.1,49.8 80.3,49.3 80.3,47.3 78.9,45.9 77.4,45.4 		"/>
		<path style="clip-path:url(#SVGID_1_);fill:#FFFFFF;" d="M83.6,37.1l-20.3-7.3c0,0-22.3-4.9-22.8-4.9c-0.5,0-24.7,0-24.7,0
			l-24.3,5.3v23.3l15-9.7L24,39.6l9.7,0.7v-3.1l43.7,1.9v4.4h6.3L83.6,37.1z"/>
		<polygon style="clip-path:url(#SVGID_1_);fill:#FFFFFF;" points="27,52.7 15.8,50.7 7.6,52.7 2.7,58 1.3,69.6 11.4,72.1 
			16.8,70.1 18.2,73.5 26.2,75.3 35.2,65.8 35.7,60.9 32.3,60.4 30.4,56.5 		"/>
		<polygon style="clip-path:url(#SVGID_1_);fill:#FFFFFF;" points="30.4,46.4 34.7,51.2 27.9,50.2 27.9,47.8 		"/>
		<polygon style="clip-path:url(#SVGID_1_);fill:#FFFFFF;" points="61.6,51.9 65,47.1 71.3,47.1 73.3,50 85.9,50.5 103.8,57.8 
			105.3,59.7 117.4,65 119.9,69.4 131,75.2 131,88.3 61.6,88.3 29.1,81 25.3,78.6 28.2,67.9 33.5,62.6 35.9,61.2 43.2,57.8 
			54.9,53.9 56.8,51.9 		"/>
		<polygon style="clip-path:url(#SVGID_1_);fill:#FFFFFF;" points="46.4,88.1 39.1,88.4 35.3,88.1 33,88.8 24.5,88.1 33,89.5 
			35.3,88.8 39.1,89.2 		"/>
		<polygon style="clip-path:url(#SVGID_1_);fill:#FFFFFF;" points="15.8,75.9 12.5,76.6 7.1,75.9 12.5,77.4 15.8,76.6 20.9,77 		"/>
		<polygon style="clip-path:url(#SVGID_1_);fill:#FFFFFF;" points="61.9,93.8 57.1,94.1 53.2,93.8 57.1,94.9 		"/>
	</g>
	<path style="fill:#D02C2F;" d="M50,98.8C23.1,98.8,1.3,76.9,1.3,50S23.1,1.3,50,1.3S98.8,23.1,98.8,50S76.9,98.8,50,98.8z M50,2.7
		C23.9,2.7,2.7,23.9,2.7,50S23.9,97.3,50,97.3S97.3,76.1,97.3,50S76.1,2.7,50,2.7z"/>
</g>
</svg>
