<?xml version="1.0" encoding="utf-8"?>
<!-- Generator: Adobe Illustrator 24.0.2, SVG Export Plug-In . SVG Version: 6.00 Build 0)  -->
<svg version="1.1" id="Capa_1" xmlns="http://www.w3.org/2000/svg" xmlns:xlink="http://www.w3.org/1999/xlink" x="0px" y="0px"
	 viewBox="0 0 100 100" style="enable-background:new 0 0 100 100;" xml:space="preserve">
<g>
	<g>
		<defs>
			<circle id="SVGID_3_" cx="50" cy="50" r="48"/>
		</defs>
		<clipPath id="SVGID_1_">
			<use xlink:href="#SVGID_3_"  style="overflow:visible;"/>
		</clipPath>
		<g style="clip-path:url(#SVGID_1_);">
			<polygon style="fill:#FFFFFF;" points="103.8,73.8 101.3,82 88.3,81.9 90.6,75.4 103.3,75.4 103.8,73.8 90.3,73.8 89.3,76.3 
				86.4,73.8 83.9,82 71.8,81.9 74.2,75.4 85.9,75.4 86.4,73.8 73.8,73.8 72.8,76.3 69.9,73.8 67.4,82 55.8,81.9 58.1,75.4 
				69.4,75.4 69.9,73.8 57.8,73.8 56.8,76.3 53.9,73.8 51.4,82 40.7,81.9 43.1,75.4 53.4,75.4 53.9,73.8 42.7,73.8 33.5,98.5 
				34.5,98.5 40.3,83 51.2,82.5 45.6,100.9 49,100 49.8,97.7 55.4,83 67.2,82.5 61.6,100.9 65,100 65.9,97.7 71.4,83 83.7,82.5 
				78.1,100.9 81.5,100 82.3,97.7 87.9,83 101.2,82.5 95.1,102.4 105.8,100.4 111.6,79.6 			"/>
			<g>
				<polygon style="fill:#FFFFFF;" points="42.7,80.6 42.5,81.2 42.7,81.2 				"/>
				<polygon style="fill:#FFFFFF;" points="45.8,74.7 48.2,68.4 57.2,67.9 54.2,77.6 57.3,77.6 60.7,68.4 70.5,67.9 68.5,75.2 
					71.5,75.2 73.9,68.4 84.2,67.9 82.2,74.7 85.2,74.7 87.6,68.4 98.7,67.9 96.6,74.7 104.8,74.7 107.4,65.5 100.9,60.7 98.8,67.5 
					88,67.4 90,62 100.5,62 100.9,60.7 89.6,60.7 88.9,62.8 86.4,60.7 84.3,67.5 74.3,67.4 76.3,62 86,62 86.4,60.7 75.9,60.7 
					75.2,62.8 72.7,60.7 70.6,67.5 61,67.4 63,62 72.3,62 72.7,60.7 62.7,60.7 61.9,62.8 59.4,60.7 57.4,67.5 48.5,67.4 50.5,62 
					59,62 59.4,60.7 50.2,60.7 44.9,74.7 				"/>
			</g>
		</g>
		<path style="clip-path:url(#SVGID_1_);fill:#FFFFFF;" d="M52.4,36.4l-1.9,8.7l-14.6-16l-7.8,19.4l6.3,7.8L14.1,82L2.9,67.5
			l3.9,8.7c4.9,10.2,24.3,19.4,24.3,19.4l9.7-24.3h2.9l4.9-12.6h10.5l2.6,1.9l1-1.9h9.5l2.6,1.9l1-1.9h2.4h6.8h1.2l2.2,1.9l1-1.9
			h11.6l7.9,6.3l-2.5,10.5l5.3,4.1l-2.3,8.2l21.4,0.5l-8.3-34.7L108.1,43l-7.2,0.8l-7.2-6.5l-6.6,1.6l-9.9-7.3l-14.9,9L52.8,33
			l-6.2,3.9L36.3,25.3L21.4,37.4l-5-2.2l-7.7,7.7l-3.3-1.1l-13.8,11v45.8l54.2,1.8l0.4-1.4H23.8L-3.8,66.5l-1-13.6l10.2-8.2l3.4,1.5
			l8.2-8.2l-0.5,7.3l19.4-16l10.2,11.2L52.4,36.4 M76.7,35.9l10.2,7.8l-24.1,0.5l-0.1,0L76.7,35.9z"/>
	</g>
	<path style="fill:#D02C2F;" d="M50,98.8C23.1,98.8,1.3,76.9,1.3,50S23.1,1.3,50,1.3S98.8,23.1,98.8,50S76.9,98.8,50,98.8z M50,2.7
		C23.9,2.7,2.7,23.9,2.7,50S23.9,97.3,50,97.3S97.3,76.1,97.3,50S76.1,2.7,50,2.7z"/>
</g>
</svg>
