<?xml version="1.0" encoding="utf-8"?>
<!-- Generator: Adobe Illustrator 24.0.2, SVG Export Plug-In . SVG Version: 6.00 Build 0)  -->
<svg version="1.1" id="Capa_1" xmlns="http://www.w3.org/2000/svg" xmlns:xlink="http://www.w3.org/1999/xlink" x="0px" y="0px"
	 viewBox="0 0 100 100" enable-background="new 0 0 100 100" xml:space="preserve">
<g>
	<g>
		<g>
			<defs>
				<circle id="SVGID_1_" cx="50" cy="50" r="48"/>
			</defs>
			<clipPath id="SVGID_2_">
				<use xlink:href="#SVGID_1_"  overflow="visible"/>
			</clipPath>
			<g clip-path="url(#SVGID_2_)">
				<g>
					<g>
						<path fill="#FFFFFF" d="M56.2,69.4L29.7,48.6L16,44.5L4.9,35.4l-12.2,7.2l-15.9-17.5l-14.3,13.5v3.9l12.7-8.5l16.1,12.4
							l13.3-5.2l8.5,8.3l15.4,3l-25.2,18l-16.3-12.2c0,0-22.6,16.4-22.8,17.3c0,0,0,0,0,0v19.6h4.2v-7.3c0.6,0.2,13.7,2.6,13.7,2.6
							l22.6-6.8l24.8,11.6h0.5l19.3,6.4l11.6-2.4l13.6-2.4L51.4,76.4l8.9-2.2l-6.8-4.4L56.2,69.4z M41.4,80.3l-1.1-1.9l-1.1,1.9
							l-1.3-2l-1.1,2l-0.7,1.3l-0.7,2.2l-13-0.9v-4.6h-1.1l1.7-3l2.7,0.1l0-0.7h0.9v0.7l2,0.2l0.2-0.7h0.7l0.1,0.7l4.7,0.2l3.3-2.2
							l3.9,3.3L41.4,80.3z"/>
					</g>
					<g>
						<path fill="#FFFFFF" d="M-37.5,42.5l1.7,33.1c0,0,0,0,0,0C-35.7,74.5-37.5,42.5-37.5,42.5z"/>
						<path d="M-37.5,42.5l1.7,33.1c0,0,0,0,0,0C-35.7,74.5-37.5,42.5-37.5,42.5L-37.5,42.5z M-35.8,75.7
							C-35.8,75.7-35.8,75.7-35.8,75.7L-35.8,75.7z"/>
					</g>
				</g>
				<g>
					<polygon fill="#FFFFFF" points="105.8,45.6 96.4,41.2 90.3,43.4 81.4,39.1 77.3,41.2 66.8,33 49.7,37.5 40.3,33 33.8,34.5 
						19.7,30.4 13.1,31.5 4.9,23.4 -6.2,31 -14.9,22 -21.7,19.7 -31,22.3 -31,32.5 -22.3,22.7 -6.7,40.8 5.3,32.7 17.2,42.5 
						30.1,46.2 55.5,66.6 63.4,45.9 72,49.2 89.4,46.5 97.8,44.9 					"/>
				</g>
				<g>
					<polygon fill="#FFFFFF" points="31.6,78.7 20.1,78.2 22.4,78.9 31.6,79.3 					"/>
				</g>
				<g>
					<path fill="#FFFFFF" d="M98.2,44.9l-8.9,2.4l-17,3.4L64,47.3l-7.8,20l2.8,3l-2.6,0.2l6.1,3.9l-8.9,2.2l8.5,7l0.1,0.1l5.9,4.4
						l18.4-15.9l-14.3-6.7l9.8-7.8l-9.8-4.1l2.2-3.4l0,0l-1,2.9L84.2,57l-9.1,8l16.1,5.7c0,0-18.7,22.3-18.7,22.3
						c0.6,0.2,21.2-3.9,21.2-3.9l15.6,11.1l17.1,1l-1.7-62L98.2,44.9z"/>
				</g>
			</g>
		</g>
		<path fill="#D02C2F" d="M50,98.8C23.1,98.8,1.3,76.9,1.3,50S23.1,1.3,50,1.3S98.8,23.1,98.8,50S76.9,98.8,50,98.8z M50,2.7
			C23.9,2.7,2.7,23.9,2.7,50S23.9,97.3,50,97.3S97.3,76.1,97.3,50S76.1,2.7,50,2.7z"/>
	</g>
</g>
</svg>
