<?xml version="1.0" encoding="utf-8"?>
<!-- Generator: Adobe Illustrator 24.0.2, SVG Export Plug-In . SVG Version: 6.00 Build 0)  -->
<svg version="1.1" id="Capa_1" xmlns="http://www.w3.org/2000/svg" xmlns:xlink="http://www.w3.org/1999/xlink" x="0px" y="0px"
	 viewBox="0 0 100 100" style="enable-background:new 0 0 100 100;" xml:space="preserve">
<g>
	<g>
		<defs>
			<circle id="SVGID_3_" cx="49.8" cy="49.8" r="48"/>
		</defs>
		<clipPath id="SVGID_1_">
			<use xlink:href="#SVGID_3_"  style="overflow:visible;"/>
		</clipPath>
		<polygon style="clip-path:url(#SVGID_1_);fill:#FFFFFF;" points="11,82.3 25.8,83.1 35.5,82.1 45.3,82.7 65.8,82.3 45.1,83.9 
			35,83.2 24.9,84.3 10.5,83.2 		"/>
		<polygon style="clip-path:url(#SVGID_1_);fill:#FFFFFF;" points="78.9,90 68.9,89 53.6,90 69.3,88.2 		"/>
		<path style="clip-path:url(#SVGID_1_);fill:#FFFFFF;" d="M122.2,53.4l-14.3-10.6l-7.2,0.8l-13.1-8.9l-7,4.9l-10.9-4l-7.6,4.6
			l-9.5-7.6l-6.2,3.9l-15.2-6.8l-10,7.3l-5-2.2l-8.7,6.3l-8.2-1.1l-8,12.5v45.8l0.2,0v1.8h6.3V75.7h30.7l-2.2-4.5h9.4l-4.1-4.3
			L55,68.1l12.6-0.8l10.8,1.6l29.5-1.5l-0.4,32.8h8.7V87.7l14.2,0.4L122.2,53.4z M87.6,37.1l-2.4,13.1l-0.1,0l-6.8-5.8L87.6,37.1z
			 M17.3,53.2L1.7,49.8l-6.2,10.7l-0.6-7.8l4.4-9.7l8.2,1.5l9.2-6.8l4.9,2.4l9.2-6.3l15,6.3l6.3-3.9l-2.4,9.7l-18.4-4.4l-12.6,9.2
			l10.2,12.1L17.3,53.2z M89.5,52.7l-7.8,2.4l-14.6-5.3l-11.6,6.3l-11.2-2.4l-16,5.3l15.5-6.8l11.6,2.4l11.6-6.3l15.5,5.3l6.3-2.4
			l14.1,5.3L89.5,52.7z"/>
		<polygon style="clip-path:url(#SVGID_1_);fill:#FFFFFF;" points="93.9,76.4 84.7,76.8 79.8,76.4 76.9,77.2 66.3,76.4 76.9,77.9 
			79.8,77.2 84.7,77.5 		"/>
	</g>
	<path style="fill:#D02C2F;" d="M50,98.8C23.1,98.8,1.3,76.9,1.3,50S23.1,1.3,50,1.3S98.8,23.1,98.8,50S76.9,98.8,50,98.8z M50,2.7
		C23.9,2.7,2.7,23.9,2.7,50S23.9,97.3,50,97.3S97.3,76.1,97.3,50S76.1,2.7,50,2.7z"/>
</g>
</svg>
