<?xml version="1.0" encoding="utf-8"?>
<!-- Generator: Adobe Illustrator 24.0.2, SVG Export Plug-In . SVG Version: 6.00 Build 0)  -->
<svg version="1.1" id="Capa_1" xmlns="http://www.w3.org/2000/svg" xmlns:xlink="http://www.w3.org/1999/xlink" x="0px" y="0px"
	 viewBox="0 0 90 20" style="enable-background:new 0 0 90 20;" xml:space="preserve">
<style type="text/css">
	.st0{fill:#FFFFFF;}
</style>
<g>
	<g>
		<path class="st0" d="M19.1,17.9c0.2,0.2,0.4,0.4,0.8,0.6V19h-9v-0.4c0.9-0.6,1.3-0.9,1.3-1.6c0-0.4-0.1-1-0.5-1.9l-0.4-1.2H6.8
			c-0.4,1.2-0.5,2-0.5,2.5c0,0.8,0.4,1.5,1.3,2.3V19H2.4v-0.4c0.8-0.7,1.4-1.4,1.8-2.1c0.4-0.7,0.8-1.6,1.2-2.7l3-8.7L7.3,3
			c2-0.7,3.7-1.5,5.1-2.4l5.8,15.7C18.6,17.1,18.8,17.6,19.1,17.9z M10.6,11.7L9,7l-1.5,4.7H10.6z"/>
		<path class="st0" d="M38.4,1.9c-2.1,1.4-2.2,1.5-2.3,5.6V19h-4.5c-1.9-3.4-4.3-7.3-7.1-11.7V13c0,2.7,0.2,3.8,0.8,4.4
			c0.3,0.3,0.8,0.7,1.5,1.2V19h-6.4v-0.4c0.7-0.4,1.3-0.8,1.5-1.2c0.3-0.3,0.5-0.8,0.6-1.4c0.1-0.6,0.2-1.6,0.2-3V6
			c0-1.5-0.8-3-2.3-4.4V1.5h6.9c1.9,2.9,4.2,6.7,7,11.3V7.5c-0.1-4.1-0.2-4.2-2.3-5.6V1.5h6.4V1.9z"/>
		<path class="st0" d="M57.4,9.7c0,2.7-0.8,4.9-2.5,6.7s-4,2.6-7,2.6H39v-0.4c0.7-0.4,1.1-0.7,1.2-1c0.2-0.3,0.3-0.9,0.3-1.8V4.7
			c0-0.9-0.1-1.4-0.3-1.7C40,2.7,39.6,2.3,39,1.9V1.5h7.9C53.8,1.5,57.4,4.3,57.4,9.7z M50.1,15.3c0.7-1.3,1-3.1,1-5.4
			c0-1.9-0.3-3.4-0.7-4.3c-0.4-1-1.1-1.7-1.5-2c-0.5-0.3-1.3-0.5-1.7-0.5c-0.2,0-0.4,0-0.6,0h-0.2v13c0,0.7,0.6,1.2,1.4,1.2
			C48.6,17.2,49.4,16.6,50.1,15.3z"/>
		<path class="st0" d="M73,13.2L72.4,19H57.9v-0.4c0.7-0.4,1.1-0.7,1.2-1c0.2-0.3,0.3-0.9,0.3-1.8V4.7c0-0.9-0.1-1.4-0.3-1.7
			c-0.2-0.3-0.6-0.7-1.2-1.1V1.5h13.7l0.4,6h-0.4c-0.4-1.2-1.1-2.2-2.1-3.1c-1-0.9-2.2-1.3-3.8-1.3h-0.4V9H66c1.7,0,2.9-0.9,3.5-2
			h0.4v5.6h-0.4c-0.6-1.3-1.9-2.3-3.5-2.3l-0.7,0v5.8c0,0.8,0.8,1.3,1.7,1.3h0c1.2,0,2.2-0.4,3.2-1.3c1-0.9,1.8-1.8,2.4-3H73z"/>
		<path class="st0" d="M75.4,18.1l-0.3-6.3h0.4c2.4,3.9,4.4,5.9,6,5.9c0.9,0,1.4-0.6,1.4-1.6c0-1.4-1-2.4-3.2-3.8L79,11.9l-0.8-0.5
			L77.6,11c-0.7-0.4-0.7-0.6-1.2-1.1c-0.5-0.5-0.6-0.8-0.8-1.4c-0.3-0.6-0.3-1.2-0.3-1.9c0-1.7,0.6-3.1,1.7-4c1.1-1,2.5-1.4,4.2-1.4
			c1.4,0,3,0.3,5,0.8l0.5,6.1h-0.4c-0.8-1.4-1.6-2.6-2.6-3.7c-1-1.1-1.8-1.6-2.7-1.6c-0.8,0-1.4,0.6-1.4,1.5c0,1,0.8,1.8,3,3.1
			l1,0.6c0.5,0.3,0.8,0.5,1,0.6c0.2,0.1,0.4,0.3,0.8,0.5c0.4,0.3,0.6,0.5,0.8,0.7c0.3,0.3,0.9,1,1.1,1.6c0.2,0.6,0.4,1.4,0.4,2.3
			c0,2.1-0.8,3.7-2.1,4.6c-1.3,0.8-2.7,1.2-4.2,1.2C79.6,19.4,77.6,18.9,75.4,18.1z"/>
	</g>
</g>
</svg>
